<svg xmlns="http://www.w3.org/2000/svg" version="1.1" xmlns:xlink="http://www.w3.org/1999/xlink" xmlns:svgjs="http://svgjs.dev/svgjs" width="1000" height="1000" viewBox="0 0 1000 1000"><rect width="1000" height="1000" fill="#000000"></rect><g transform="matrix(0.7,0,0,0.7,149.5757576427025,398.01141622140864)"><svg viewBox="0 0 396 116" data-background-color="#e65728" preserveAspectRatio="xMidYMid meet" height="292" width="1000" xmlns="http://www.w3.org/2000/svg" xmlns:xlink="http://www.w3.org/1999/xlink"><g id="tight-bounds" transform="matrix(1,0,0,1,0.24000003787170954,-0.11998180862721597)"><svg viewBox="0 0 395.52 116.23996361725443" height="116.23996361725443" width="395.52"><g><svg viewBox="0 0 588.3808485048604 172.9201264747529" height="116.23996361725443" width="395.52"><g transform="matrix(1,0,0,1,0,23.89851241438336)"><svg viewBox="0 0 395.52 125.12310164598617" height="125.12310164598617" width="395.52"><g id="textblocktransform"><svg viewBox="0 0 395.52 125.12310164598617" height="125.12310164598617" width="395.52" id="textblock"><g><svg viewBox="0 0 395.52 84.46738351254481" height="84.46738351254481" width="395.52"><g transform="matrix(1,0,0,1,0,0)"><svg width="395.52" viewBox="1.7000000476837158 -34.79999923706055 167.3800048828125 35.75" height="84.46738351254481" data-palette-color="#ffffff"><path d="M11.8 0L1.7 0 1.7-34.8 22.15-34.8 21.15-27.8 11.8-27.8 11.8-20 20.05-20 20.05-12.95 11.8-12.95 11.8 0ZM23.75-34.8L33.85-34.8 33.85-7.75 45.55-7.75 44.5 0 23.75 0 23.75-34.8ZM73.75-34.8L73.75-11.1Q73.75-7.65 72.27-4.93 70.8-2.2 67.8-0.63 64.8 0.95 60.4 0.95L60.4 0.95Q53.75 0.95 50.37-2.27 47-5.5 47-11.1L47-11.1 47-34.8 57.09-34.8 57.09-11.4Q57.09-8.7 57.84-7.48 58.59-6.25 60.4-6.25L60.4-6.25Q62.15-6.25 62.9-7.48 63.65-8.7 63.65-11.4L63.65-11.4 63.65-34.8 73.75-34.8ZM76.64-34.8L86.74-34.8 86.74 0 76.64 0 76.64-34.8ZM100.84-34.8Q105.79-34.8 109.44-33.43 113.09-32.05 115.37-28.25 117.64-24.45 117.64-17.55L117.64-17.55Q117.64-7.85 113.27-3.93 108.89 0 101.29 0L101.29 0 90.19 0 90.19-34.8 100.84-34.8ZM101.99-27.7L100.29-27.7 100.29-7.15 101.89-7.15Q103.89-7.15 105.07-8.1 106.24-9.05 106.79-11.3 107.34-13.55 107.34-17.55L107.34-17.55Q107.34-21.5 106.77-23.73 106.19-25.95 105.04-26.83 103.89-27.7 101.99-27.7L101.99-27.7ZM156.09-34.8L156.09-11.1Q156.09-7.65 154.61-4.93 153.14-2.2 150.14-0.63 147.14 0.95 142.74 0.95L142.74 0.95Q136.09 0.95 132.71-2.27 129.34-5.5 129.34-11.1L129.34-11.1 129.34-34.8 139.44-34.8 139.44-11.4Q139.44-8.7 140.19-7.48 140.94-6.25 142.74-6.25L142.74-6.25Q144.49-6.25 145.24-7.48 145.99-8.7 145.99-11.4L145.99-11.4 145.99-34.8 156.09-34.8ZM158.98-34.8L169.08-34.8 169.08 0 158.98 0 158.98-34.8Z" opacity="1" transform="matrix(1,0,0,1,0,0)" fill="#ffffff" class="undefined-text-0" data-fill-palette-color="primary" id="text-0"></path></svg></g></svg></g><g transform="matrix(1,0,0,1,94.9248,104.40810554265235)"><svg viewBox="0 0 300.5952 20.714996103333817" height="20.714996103333817" width="300.5952"><g transform="matrix(1,0,0,1,0,0)"><svg width="300.5952" viewBox="1.5 -37.54999923706055 692.8200073242188 47.75" height="20.714996103333817" data-palette-color="#ffffff"><path d="M27.75-2.65L31.15-2.35 31.1 0 23.5 0 16.35-13 10.4-12.95 10.4-2.95 15.75-2.35 15.7 0 1.8 0 1.5-1.6 5.75-3.15 5.75-29.9 2.2-30.1 2.25-32.5 16.2-32.9Q21.5-32.9 24.78-30.18 28.05-27.45 28.05-23.25L28.05-23.25Q28.05-20.25 26.2-17.57 24.35-14.9 20.95-13.7L20.95-13.7 27.75-2.65ZM10.4-29.2L10.4-16.25Q12.65-15.9 14.65-15.9L14.65-15.9Q19.25-15.9 21.1-18.07 22.95-20.25 22.95-23.25L22.95-23.25Q22.95-28.05 19.05-29.95L19.05-29.95 10.4-29.2ZM49.2-12.85L36.35-13.1Q36.35-8.15 38.62-5.6 40.9-3.05 44.55-3.05L44.55-3.05Q47.25-3.05 50.95-4.7L50.95-4.7 51.7-2.55 43.9 0.75Q38.4 0.75 35.02-2.63 31.65-6 31.65-11.3L31.65-11.3Q31.65-16.7 34.97-20.55 38.3-24.4 43.1-24.4L43.1-24.4Q45.7-24.4 47.77-23.25 49.85-22.1 50.97-20.1 52.1-18.1 52.05-15.65L52.05-15.65 49.2-12.85ZM40.6-21.35L40.6-21.35Q37.75-19.85 36.75-15.75L36.75-15.75 47.7-16.25Q47.2-18.65 45.22-20.1 43.25-21.55 40.6-21.35ZM66.05 0.95L66.05 0.95Q64.15 0.95 62.2 0.5L62.2 0.5 62.2 6.95Q64.95 7.2 66.3 7.8L66.3 7.8 66 10.2 54.7 10.2 54.45 8.55 57.75 7.35 57.75-20.6 54.05-20.3 53.45-22.65Q56.8-24.1 60.25-24.2L60.25-24.2 62.2-22.45 62.2-20.35 67.85-24.05 69.75-24.25Q73.7-24.25 76.32-20.88 78.95-17.5 78.95-12.5L78.95-12.5Q78.95-6.7 75.3-2.88 71.65 0.95 66.05 0.95ZM68.1-20.15L68.1-20.15Q65.85-20.15 62.2-17.8L62.2-17.8 62.2-4Q64.6-2.35 68-2.35L68-2.35 70-2.5Q71.95-3.7 73.1-6.2 74.25-8.7 74.25-11.5L74.25-11.5Q74.25-15.05 72.5-17.6 70.75-20.15 68.1-20.15ZM81.19-11.8Q81.19-17.4 84.37-20.9 87.54-24.4 92.49-24.4L92.49-24.4Q97.39-24.4 100.44-20.8 103.49-17.2 103.49-11.5L103.49-11.5Q103.49-5.85 100.49-2.43 97.49 1 92.59 1L92.59 1Q87.64 1 84.42-2.6 81.19-6.2 81.19-11.8ZM95.54-2.6L95.54-2.6Q98.79-4.75 98.79-10.95L98.79-10.95Q98.79-15.4 97.14-18.35 95.49-21.3 92.09-21.3L92.09-21.3Q89.84-21.3 88.29-20.2L88.29-20.2Q85.94-17.4 85.94-12.35L85.94-12.35Q85.94-8.05 87.77-5.15 89.59-2.25 93.14-2.25L93.14-2.25Q94.29-2.25 95.54-2.6ZM129.74-15.35L129.74-3.2Q132.29-2.85 133.24-2.4L133.24-2.4 132.94 0 122.69 0 122.44-1.65 125.29-2.75 125.29-14.8Q125.29-20.2 122.09-20.2L122.09-20.2Q119.19-20.2 114.29-16.45L114.29-16.45 114.29-3.15Q116.39-2.9 117.54-2.4L117.54-2.4 117.24 0 106.54 0 106.29-1.65 109.84-2.95 109.84-20.6 106.09-20.3 105.49-22.65Q108.84-24.1 112.29-24.2L112.29-24.2 114.29-22.45 114.29-19.15Q121.79-24.2 124.49-24.2L124.49-24.2Q125.94-23.95 127.42-22.73 128.89-21.5 129.31-20.2 129.74-18.9 129.74-15.35L129.74-15.35ZM140.39-18.5L140.39-18.5Q140.39-16.9 141.69-15.95 142.99-15 145.69-13.8L145.69-13.8 148.64-12.45Q152.94-10.2 152.94-6.25L152.94-6.25Q152.94-3.05 150.54-1.03 148.14 1 144.34 1L144.34 1Q140.19 1 135.49-1.6L135.49-1.6 137.34-6Q142.04-2.8 147.24-2.1L147.24-2.1Q148.59-3.3 148.59-5 148.59-6.7 147.34-7.75 146.09-8.8 142.41-10.43 138.74-12.05 137.46-13.58 136.19-15.1 136.19-17.25L136.19-17.25Q136.19-20.4 138.86-22.4 141.54-24.4 145.69-24.4L145.69-24.4Q149.19-24.4 152.09-22.9L152.09-22.9Q152.24-19.25 151.24-16.45L151.24-16.45 148.54-16.45 148.19-20.3Q145.69-21.4 142.94-21.4L142.94-21.4 141.99-21.35Q140.39-20.35 140.39-18.5ZM162.74-28.65L162.74-28.65Q160.28-29.7 158.88-31.65L158.88-31.65Q160.19-34.35 161.94-35.45L161.94-35.45Q164.19-34.55 165.69-32.45L165.69-32.45Q164.88-30.15 162.74-28.65ZM164.74-22.45L164.74-3.2Q167.24-2.9 168.34-2.4L168.34-2.4 168.03 0 156.74 0 156.49-1.65Q157.69-2.25 160.28-3.05L160.28-3.05 160.28-20.6 156.53-20.3 155.94-22.65Q159.28-24.1 162.74-24.2L162.74-24.2 164.74-22.45ZM194.78-23.4L195.08-21.6 191.93-20.4Q187.38-7 184.58-0.15L184.58-0.15Q183.23 0.3 181.38 0.3L181.38 0.3 178.78 0.1 171.63-20.8 168.83-20.95 168.88-23.4 178.88-23.4 179.18-21.6 176.68-20.65 180.43-8.65 181.13-3.3 182.33-3.3Q184.83-10.65 187.43-20.8L187.43-20.8 184.73-20.95 184.78-23.4 194.78-23.4ZM212.13-12.85L199.28-13.1Q199.28-8.15 201.56-5.6 203.83-3.05 207.48-3.05L207.48-3.05Q210.18-3.05 213.88-4.7L213.88-4.7 214.63-2.55 206.83 0.75Q201.33 0.75 197.96-2.63 194.58-6 194.58-11.3L194.58-11.3Q194.58-16.7 197.91-20.55 201.23-24.4 206.03-24.4L206.03-24.4Q208.63-24.4 210.71-23.25 212.78-22.1 213.91-20.1 215.03-18.1 214.98-15.65L214.98-15.65 212.13-12.85ZM203.53-21.35L203.53-21.35Q200.68-19.85 199.68-15.75L199.68-15.75 210.63-16.25Q210.13-18.65 208.16-20.1 206.18-21.55 203.53-21.35ZM231.63-32.5L254.48-32.5 254.53-30.8Q254.53-27.3 253.98-24.25L253.98-24.25 251.28-24.25 250.68-28.85 239.78-29.6 239.78-16.7 251.23-17.55 251.23-13.2 239.78-13.7 239.78-3.05 245.63-2.35 245.58 0 231.18 0 230.88-1.6 235.13-3.15 235.13-29.9 231.58-30.1 231.63-32.5ZM264.52-35L264.52-3.2Q267.02-2.9 268.12-2.4L268.12-2.4 267.82 0 256.52 0 256.27-1.65Q257.47-2.25 260.07-3.05L260.07-3.05 260.07-33.15 256.32-32.85 255.72-35.2Q259.07-36.65 262.52-36.75L262.52-36.75 264.52-35ZM297.02-3.75L297.77-1.55 292.72 0.75Q291.92 0.65 290.75-0.5 289.57-1.65 289.12-2.95L289.12-2.95Q286.62-1.35 283.82-0.3 281.02 0.75 279.47 0.75L279.47 0.75Q276.72 0.15 275.07-2.5L275.07-2.5Q274.27-3.65 274.22-7.05L274.22-7.05 274.22-20.6 270.47-20.3 269.87-22.65Q273.22-24.1 276.67-24.2L276.67-24.2 278.67-22.45 278.67-7.4Q278.82-3.1 281.97-3.1L281.97-3.1Q284.72-3.1 288.97-5.7L288.97-5.7 288.97-20.6 285.22-20.3 284.62-22.65Q287.97-24.1 291.42-24.2L291.42-24.2 293.42-22.45 293.42-4.3Q293.42-3.3 294.72-3.3L294.72-3.3Q295.47-3.3 297.02-3.75L297.02-3.75ZM308.82-3.4L308.82-3.4Q310.27-3.4 313.42-4.55L313.42-4.55 314.27-2.25 307.77 0.75Q306.07 0.85 304.39-0.53 302.72-1.9 302.72-3.5L302.72-3.5 302.72-19.65 299.62-19.6 299.27-22Q300.87-22.7 302.82-23.15L302.82-23.15 304.82-29.45 307.17-29.45 307.17-23.4 314.17-23.4 314.37-21.95 312.02-19.55 307.17-19.55 307.17-6.1Q307.17-4.55 307.52-3.98 307.87-3.4 308.82-3.4ZM325.96-3.4L325.96-3.4Q327.41-3.4 330.56-4.55L330.56-4.55 331.41-2.25 324.91 0.75Q323.21 0.85 321.54-0.53 319.86-1.9 319.86-3.5L319.86-3.5 319.86-19.65 316.76-19.6 316.41-22Q318.01-22.7 319.96-23.15L319.96-23.15 321.96-29.45 324.31-29.45 324.31-23.4 331.31-23.4 331.51-21.95 329.16-19.55 324.31-19.55 324.31-6.1Q324.31-4.55 324.66-3.98 325.01-3.4 325.96-3.4ZM351.11-12.85L338.26-13.1Q338.26-8.15 340.54-5.6 342.81-3.05 346.46-3.05L346.46-3.05Q349.16-3.05 352.86-4.7L352.86-4.7 353.61-2.55 345.81 0.75Q340.31 0.75 336.94-2.63 333.56-6 333.56-11.3L333.56-11.3Q333.56-16.7 336.89-20.55 340.21-24.4 345.01-24.4L345.01-24.4Q347.61-24.4 349.69-23.25 351.76-22.1 352.89-20.1 354.01-18.1 353.96-15.65L353.96-15.65 351.11-12.85ZM342.51-21.35L342.51-21.35Q339.66-19.85 338.66-15.75L338.66-15.75 349.61-16.25Q349.11-18.65 347.14-20.1 345.16-21.55 342.51-21.35ZM375.16-23.15L375.16-23.15Q375.36-19.45 374.26-15.05L374.26-15.05 371.56-15.05 371.01-20.55Q366.96-18.3 364.16-14.6L364.16-14.6 364.16-3.3Q367.81-3.05 369.31-2.4L369.31-2.4 369.01 0 356.31 0 356.06-1.65 359.71-3 359.71-20.6 355.96-20.3 355.36-22.65Q358.71-24.1 362.16-24.2L362.16-24.2 364.16-22.45 364.16-17.9 369.41-23.5Q370.86-24.1 372.06-24.1L372.06-24.1Q373.66-24.1 375.16-23.15ZM427.81-2.9L432.75-2.35 432.7 0 419.31 0 419-1.6 423.31-3.15 423-21 423.7-29.25 413.45-0.8 409.1 0.35 398.56-28.85 399.5-21 399.06-2.85 403.25-2.35 403.2 0 391 0 390.7-1.6Q392.15-2.3 395.15-3.2L395.15-3.2 396.1-29.7 392.15-30.15 392.2-32.5 402.25-32.5 412-5.4 421.6-32.5 430.75-32.5 431.06-30.9Q429.81-30.3 427.35-29.55L427.35-29.55 427.81-2.9ZM459.65-3.75L460.4-1.55 455.35 0.75Q454.55 0.65 453.38-0.5 452.2-1.65 451.75-2.95L451.75-2.95Q449.25-1.35 446.45-0.3 443.65 0.75 442.1 0.75L442.1 0.75Q439.35 0.15 437.7-2.5L437.7-2.5Q436.9-3.65 436.85-7.05L436.85-7.05 436.85-20.6 433.1-20.3 432.5-22.65Q435.85-24.1 439.3-24.2L439.3-24.2 441.3-22.45 441.3-7.4Q441.45-3.1 444.6-3.1L444.6-3.1Q447.35-3.1 451.6-5.7L451.6-5.7 451.6-20.6 447.85-20.3 447.25-22.65Q450.6-24.1 454.05-24.2L454.05-24.2 456.05-22.45 456.05-4.3Q456.05-3.3 457.35-3.3L457.35-3.3Q458.1-3.3 459.65-3.75L459.65-3.75ZM470.45-35L470.45-3.2Q472.95-2.9 474.05-2.4L474.05-2.4 473.75 0 462.45 0 462.2-1.65Q463.4-2.25 466-3.05L466-3.05 466-33.15 462.25-32.85 461.65-35.2Q465-36.65 468.45-36.75L468.45-36.75 470.45-35ZM486.35-3.4L486.35-3.4Q487.8-3.4 490.95-4.55L490.95-4.55 491.8-2.25 485.3 0.75Q483.6 0.85 481.92-0.53 480.25-1.9 480.25-3.5L480.25-3.5 480.25-19.65 477.15-19.6 476.8-22Q478.4-22.7 480.35-23.15L480.35-23.15 482.35-29.45 484.7-29.45 484.7-23.4 491.7-23.4 491.9-21.95 489.55-19.55 484.7-19.55 484.7-6.1Q484.7-4.55 485.05-3.98 485.4-3.4 486.35-3.4ZM500.49-28.65L500.49-28.65Q498.04-29.7 496.64-31.65L496.64-31.65Q497.94-34.35 499.69-35.45L499.69-35.45Q501.94-34.55 503.44-32.45L503.44-32.45Q502.64-30.15 500.49-28.65ZM502.49-22.45L502.49-3.2Q504.99-2.9 506.09-2.4L506.09-2.4 505.79 0 494.49 0 494.24-1.65Q495.44-2.25 498.04-3.05L498.04-3.05 498.04-20.6 494.29-20.3 493.69-22.65Q497.04-24.1 500.49-24.2L500.49-24.2 502.49-22.45ZM520.44 0.95L520.44 0.95Q518.54 0.95 516.59 0.5L516.59 0.5 516.59 6.95Q519.34 7.2 520.69 7.8L520.69 7.8 520.39 10.2 509.09 10.2 508.84 8.55 512.14 7.35 512.14-20.6 508.44-20.3 507.84-22.65Q511.19-24.1 514.64-24.2L514.64-24.2 516.59-22.45 516.59-20.35 522.24-24.05 524.14-24.25Q528.09-24.25 530.72-20.88 533.34-17.5 533.34-12.5L533.34-12.5Q533.34-6.7 529.69-2.88 526.04 0.95 520.44 0.95ZM522.49-20.15L522.49-20.15Q520.24-20.15 516.59-17.8L516.59-17.8 516.59-4Q518.99-2.35 522.39-2.35L522.39-2.35 524.39-2.5Q526.34-3.7 527.49-6.2 528.64-8.7 528.64-11.5L528.64-11.5Q528.64-15.05 526.89-17.6 525.14-20.15 522.49-20.15ZM543.39-35L543.39-3.2Q545.89-2.9 546.99-2.4L546.99-2.4 546.69 0 535.39 0 535.14-1.65Q536.34-2.25 538.94-3.05L538.94-3.05 538.94-33.15 535.19-32.85 534.59-35.2Q537.94-36.65 541.39-36.75L541.39-36.75 543.39-35ZM571.84-3.75L572.59-1.55 567.54 0.75Q566.79 0.65 565.64-0.43 564.49-1.5 563.99-2.7L563.99-2.7 558.34 0.7 557.14 0.75Q554.14 0.75 552.31-0.95 550.49-2.65 550.49-5.2L550.49-5.2Q550.49-8.6 553.99-10.55L553.99-10.55 563.74-10.8 563.74-15.95Q563.74-18.25 563.19-19.43 562.64-20.6 561.29-21.3L561.29-21.3Q558.24-21.2 555.64-20.45L555.64-20.45 555.24-15.25 552.59-15.05Q551.29-17.4 551.14-21.05L551.14-21.05Q553.34-22.3 557.04-23.48 560.74-24.65 562.29-24.65L562.29-24.65Q563.69-24.65 565.19-23.63 566.69-22.6 567.44-21.48 568.19-20.35 568.24-17.4L568.24-17.4 568.24-4.3Q568.24-3.3 569.54-3.3L569.54-3.3Q570.29-3.3 571.84-3.75L571.84-3.75ZM556.49-2.9L556.49-2.9Q559.44-2.8 563.74-4.75L563.74-4.75 563.74-8.2 561.24-8.35Q555.19-8.35 555.19-5.2L555.19-5.2Q555.19-3.7 556.49-2.9ZM583.88-3.4L583.88-3.4Q585.33-3.4 588.48-4.55L588.48-4.55 589.33-2.25 582.83 0.75Q581.13 0.85 579.46-0.53 577.78-1.9 577.78-3.5L577.78-3.5 577.78-19.65 574.68-19.6 574.33-22Q575.93-22.7 577.88-23.15L577.88-23.15 579.88-29.45 582.23-29.45 582.23-23.4 589.23-23.4 589.43-21.95 587.08-19.55 582.23-19.55 582.23-6.1Q582.23-4.55 582.58-3.98 582.93-3.4 583.88-3.4ZM608.53-35.1L605.73-31.1Q603.18-33.55 600.33-33.55L600.33-33.55Q599.28-33.55 598.18-33.15L598.18-33.15 599.33-23.4 604.58-23.4 604.73-22 602.38-19.55 599.08-19.55 599.08-3.3Q602.23-3 603.63-2.4L603.63-2.4 603.33 0 591.48 0 591.23-1.65 594.63-2.9 594.63-19.65 591.53-19.55 591.23-22Q592.53-22.6 594.63-23.1L594.63-23.1 594.63-28.15Q594.63-32.25 597.03-34.9 599.43-37.55 602.88-37.55L602.88-37.55Q606.18-37.55 608.53-35.1L608.53-35.1ZM606.53-11.8Q606.53-17.4 609.7-20.9 612.88-24.4 617.83-24.4L617.83-24.4Q622.73-24.4 625.78-20.8 628.83-17.2 628.83-11.5L628.83-11.5Q628.83-5.85 625.83-2.43 622.83 1 617.93 1L617.93 1Q612.98 1 609.75-2.6 606.53-6.2 606.53-11.8ZM620.88-2.6L620.88-2.6Q624.13-4.75 624.13-10.95L624.13-10.95Q624.13-15.4 622.48-18.35 620.83-21.3 617.43-21.3L617.43-21.3Q615.18-21.3 613.63-20.2L613.63-20.2Q611.28-17.4 611.28-12.35L611.28-12.35Q611.28-8.05 613.1-5.15 614.93-2.25 618.48-2.25L618.48-2.25Q619.63-2.25 620.88-2.6ZM650.63-23.15L650.63-23.15Q650.83-19.45 649.73-15.05L649.73-15.05 647.03-15.05 646.48-20.55Q642.43-18.3 639.63-14.6L639.63-14.6 639.63-3.3Q643.28-3.05 644.78-2.4L644.78-2.4 644.48 0 631.78 0 631.53-1.65 635.18-3 635.18-20.6 631.43-20.3 630.83-22.65Q634.18-24.1 637.63-24.2L637.63-24.2 639.63-22.45 639.63-17.9 644.88-23.5Q646.33-24.1 647.53-24.1L647.53-24.1Q649.13-24.1 650.63-23.15ZM690.82-15.35L690.82-3.2Q693.37-2.85 694.32-2.4L694.32-2.4 694.02 0 683.77 0 683.52-1.65 686.37-2.75 686.37-14.8Q686.37-20.2 683.17-20.2L683.17-20.2Q680.62-20.2 675.87-16.8L675.87-16.8 675.87-3.2Q678.42-2.85 679.37-2.4L679.37-2.4 679.07 0 668.82 0 668.57-1.65 671.42-2.75 671.42-14.8Q671.42-20.2 668.22-20.2L668.22-20.2Q665.62-20.2 660.97-16.85L660.97-16.85 660.97-3.15Q663.07-2.9 664.22-2.4L664.22-2.4 663.92 0 653.22 0 652.97-1.65 656.52-2.95 656.52-20.6 652.77-20.3 652.17-22.65Q655.52-24.1 658.97-24.2L658.97-24.2 660.97-22.45 660.97-19.5Q668.02-24.2 670.62-24.2L670.62-24.2Q671.97-23.95 673.27-22.95 674.57-21.95 675.17-20.85L675.17-20.85 675.62-19.35Q683.17-24.2 685.57-24.2L685.57-24.2Q687.02-23.95 688.5-22.73 689.97-21.5 690.4-20.2 690.82-18.9 690.82-15.35L690.82-15.35Z" opacity="1" transform="matrix(1,0,0,1,0,0)" fill="#ffffff" class="undefined-text-1" data-fill-palette-color="secondary" id="text-1"></path></svg></g></svg></g></svg></g></svg></g><g transform="matrix(1,0,0,1,415.4607220301075,0)"><svg viewBox="0 0 172.9201264747529 172.9201264747529" height="172.9201264747529" width="172.9201264747529"><g data-palette-color="#ffffff"><rect width="47.26483456976579" height="172.9201264747529" fill="#ffffff" stroke="transparent" data-fill-palette-color="accent" x="0" fill-opacity="1"></rect><rect width="47.26483456976579" height="172.9201264747529" fill="#ffffff" stroke="transparent" data-fill-palette-color="accent" x="57.640042158250964" fill-opacity="0.75"></rect><rect width="47.26483456976579" height="172.9201264747529" fill="#ffffff" stroke="transparent" data-fill-palette-color="accent" x="115.28008431650193" fill-opacity="0.5"></rect></g></svg></g></svg></g><defs></defs></svg><rect width="395.52" height="116.23996361725443" fill="none" stroke="none" visibility="hidden"></rect></g></svg></g></svg>